<svg xmlns="http://www.w3.org/2000/svg" width="10.01" height="10.012" viewBox="0 0 10.01 10.012">
  <path id="Close-icon-SVG-098ug" d="M687.113,484.912l-3.48,3.484c-.13.13-.256.264-.392.388a.637.637,0,1,1-.883-.912c.067-.073.139-.141.209-.211l3.329-3.329c.1-.1.192-.2.307-.324-.115-.123-.215-.237-.322-.344q-1.708-1.71-3.418-3.42c-.406-.406-.453-.766-.146-1.063s.646-.235,1.032.15q1.712,1.707,3.418,3.419c.108.109.2.238.388.473a6.415,6.415,0,0,1,.463-.607c1.054-1.065,2.116-2.122,3.176-3.182.488-.487.839-.56,1.152-.237s.228.658-.266,1.152l-3.328,3.329c-.1.1-.193.2-.389.409a4.332,4.332,0,0,1,.52.381q1.643,1.626,3.272,3.266c.426.427.485.8.178,1.092s-.649.237-1.092-.206l-3.389-3.389C687.35,485.133,687.247,485.039,687.113,484.912Z" transform="translate(-682.116 -479)"/>
</svg>
