<?xml version="1.0" standalone="no"?>
<!DOCTYPE svg PUBLIC "-//W3C//DTD SVG 20010904//EN"
 "http://www.w3.org/TR/2001/REC-SVG-20010904/DTD/svg10.dtd">
<svg version="1.0" xmlns="http://www.w3.org/2000/svg"
 width="512.000000pt" height="512.000000pt" viewBox="0 0 512.000000 512.000000"
 preserveAspectRatio="xMidYMid meet">

<g transform="translate(0.000000,512.000000) scale(0.100000,-0.100000)"
fill="#000000" stroke="none">
<path d="M2581 3326 l-854 -854 -54 -304 c-76 -432 -74 -415 -53 -465 22 -51
61 -73 127 -73 26 1 196 27 376 59 l329 58 849 849 c475 475 852 859 856 873
5 20 -38 67 -338 367 -222 222 -351 344 -364 344 -13 0 -313 -293 -874 -854z
m1029 299 l145 -145 -730 -728 -730 -728 -168 -28 c-93 -16 -171 -26 -174 -22
-3 3 8 83 25 178 l31 172 723 723 c398 398 725 723 728 723 3 0 70 -65 150
-145z"/>
<path d="M1345 1326 c-17 -7 -43 -27 -57 -44 -75 -89 -54 -217 43 -271 36 -21
45 -21 1231 -21 l1195 0 34 23 c18 12 44 38 57 57 20 30 23 45 20 100 -4 77
-29 120 -88 150 -38 20 -63 20 -1222 20 -961 -1 -1189 -3 -1213 -14z"/>
</g>
</svg>
