<?xml version="1.0" encoding="utf-8"?>
<!-- Svg Vector Icons : http://www.onlinewebfonts.com/icon -->
<!DOCTYPE svg PUBLIC "-//W3C//DTD SVG 1.1//EN" "http://www.w3.org/Graphics/SVG/1.1/DTD/svg11.dtd">
<svg version="1.1" xmlns="http://www.w3.org/2000/svg" xmlns:xlink="http://www.w3.org/1999/xlink" x="0px" y="0px" viewBox="0 0 1000 1000" enable-background="new 0 0 1000 1000" xml:space="preserve">
<metadata> Svg Vector Icons : http://www.onlinewebfonts.com/icon </metadata>
<g><path d="M980.7,244.9C949.2,127.8,855.3,58.7,731.5,59c-93.2,0.5-177.4,58-231.7,157.9c-55-99.7-142.9-157.8-235.3-158C139.3,59.7,49.7,127.7,18.7,245.3c-8.3,31.4-8.4,65-8.7,104l0,3.7C8.6,564.8,466.1,920.9,485.6,935.9c4.5,3.4,9.7,5.1,15,5.1c7.3,0,14.6-3.3,19.4-9.5c8.3-10.7,6.3-26.1-4.4-34.4C388.2,798.7,58,509,59,353.3l0-3.7c0.2-35.7,0.4-66.4,7.1-91.8c34.1-129.5,139.1-149.5,198.7-149.9h1.2c75.2,0,147.3,51.1,193.2,136.9c5.8,10.8,17.9,33.4,40.8,33.4h0.1c23,0,35.2-23.4,40.4-33.3c45.5-86.5,115.3-136.4,191.4-136.9h1.4c49.3,0,164,15,200.2,149.6c7.2,26.5,7.4,58.9,7.6,97.7c0.6,91-110.7,241.1-313.4,422.6c-10.1,9-10.9,24.5-1.9,34.6c9.1,10.1,24.6,10.9,34.6,1.9C811.2,679.4,990.9,490,990,353.8C989.7,312.9,989.5,277.6,980.7,244.9L980.7,244.9z"/></g>
</svg>