<?xml version="1.0" encoding="utf-8"?>
<!-- Svg Vector Icons : http://www.onlinewebfonts.com/icon -->
<!DOCTYPE svg PUBLIC "-//W3C//DTD SVG 1.1//EN" "http://www.w3.org/Graphics/SVG/1.1/DTD/svg11.dtd">
<svg version="1.1" xmlns="http://www.w3.org/2000/svg" xmlns:xlink="http://www.w3.org/1999/xlink" x="0px" y="0px" viewBox="0 0 1000 1000" enable-background="new 0 0 1000 1000" xml:space="preserve">
<metadata> Svg Vector Icons : http://www.onlinewebfonts.com/icon </metadata>
<g><g transform="translate(0.000000,511.000000) scale(0.100000,-0.100000)"><path d="M4624.7,4757.7l-53.9-51.8v-606v-606l53.9-51.8c62.5-64.7,146.7-69,204.9-10.8c41,41,43.1,71.2,43.1,664.3c0,340.8-8.6,629.8-17.3,642.7c-21.6,32.4-101.4,73.3-144.5,73.3C4691.6,4811.6,4652.8,4787.9,4624.7,4757.7z"/><path d="M2974.9,3819.5c-23.7-23.7-43.1-69-43.1-101.4c2.2-34.5,66.9-185.5,146.7-340.8c161.8-314.9,211.4-362.3,317-310.6c125.1,60.4,120.8,114.3-45.3,450.7c-82,168.2-163.9,314.9-185.5,325.7C3104.3,3875.6,3020.2,3864.8,2974.9,3819.5z"/><path d="M6311.3,3823.8c-56.1-62.5-295.5-580.2-295.5-640.5c0-107.8,118.6-170.4,217.8-118.6c41,23.7,342.9,597.4,342.9,655.6c0,15.1-19.4,53.9-45.3,86.3C6477.3,3873.4,6365.2,3884.2,6311.3,3823.8z"/><path d="M1320.7,3297.6c-69-34.5-103.5-129.4-66.8-194.1c15.1-30.2,226.5-235.1,470.2-455.1c366.6-334.3,452.9-403.3,506.8-403.3c36.7,0,75.5,8.6,88.4,17.2c43.1,28,77.6,114.3,64.7,163.9c-10.8,47.5-830.3,813.1-927.4,869.2C1402.6,3327.8,1383.2,3327.8,1320.7,3297.6z"/><path d="M4460.8,2816.6c-1233.6-148.8-2180.4-1043.8-2381-2251.6c-73.3-440-17.2-1015.8,140.2-1425.6c435.7-1127.9,1576.5-1824.6,2792.9-1705.9c321.3,30.2,621.1,103.5,836.8,202.7l153.1,71.2l163.9-71.2c1160.3-500.4,2536.2-105.7,3256.6,933.8C9744.7-966.2,9900-455.1,9900,131.6c0,465.8-79.8,806.6-282.5,1218.5c-483.1,977-1578.7,1591.6-2639.8,1481.6c-291.2-30.2-580.1-105.7-808.8-211.4l-172.5-77.6L5785,2629c-252.3,103.5-489.6,168.2-739.7,198.4C4825.3,2853.3,4756.3,2853.3,4460.8,2816.6z M5120.8,2499.6c159.6-25.9,528.4-144.5,528.4-170.4c0-10.8-8.6-19.4-19.4-19.4c-32.3,0-386.1-342.9-500.4-487.4c-265.3-334.3-446.4-724.6-550-1192.6c-51.8-243.7-56.1-295.5-45.3-552.1C4573-787.2,4890-1432,5558.6-2012.2c51.8-45.3,90.6-84.1,86.3-86.3c-23.7-21.6-312.7-103.5-459.4-133.7c-230.8-43.1-664.3-43.1-905.8,2.1c-847.6,157.4-1531.3,759.2-1809.5,1587.3c-135.9,407.6-155.3,946.8-49.6,1360.9C2737.6,1936.7,3897.9,2702.3,5120.8,2499.6z M7536.3,2512.6c578-60.4,1209.9-433.5,1583-936c319.2-427,476.6-910.1,476.6-1455.8c0-767.8-338.6-1462.2-933.8-1910.8c-908-683.7-2212.8-629.8-3040.9,129.4c-601.7,554.3-916.6,1630.4-694.5,2385.3c148.8,506.8,306.3,782.9,634,1112.9C6106.4,2381,6734,2596.7,7536.3,2512.6z"/><path d="M939,1636.9c-47.5-64.7-43.1-153.1,6.5-198.4c64.7-58.2,631.9-273.9,685.8-261c25.9,6.5,62.5,25.9,79.8,45.3c45.3,45.3,43.1,166.1-2.2,209.2c-58.2,49.6-593.1,252.3-670.7,252.3C992.9,1684.4,960.5,1669.3,939,1636.9z"/><path d="M147.4,243.7c-32.3-28-47.4-64.7-47.4-112.2c0-47.4,15.1-84.1,47.4-112.2c45.3-34.5,99.2-38.8,653.5-38.8h601.7l51.8,53.9c64.7,64.7,66.9,116.5,8.6,191.9l-43.1,56.1H807.4C246.7,282.5,192.7,280.4,147.4,243.7z"/><path d="M1275.4-1106.4c-157.4-62.5-306.3-129.4-327.8-148.8c-90.6-77.7-23.7-252.3,97.1-252.3c56.1,0,603.9,204.9,655.6,243.7c110,88.4,38.8,278.2-101.4,271.8C1579.5-992.1,1432.8-1043.8,1275.4-1106.4z"/><path d="M1724-2428.4c-243.7-220-455.1-427-472.3-461.5c-25.9-53.9-25.9-66.9,6.5-116.5c41-62.5,110-94.9,170.4-79.8c36.7,8.6,746.2,638.4,895,793.7c41,43.1,69,94.9,69,127.3c0,75.5-71.2,140.2-155.3,140.2C2174.7-2025.1,2105.7-2081.2,1724-2428.4z"/><path d="M3248.8-2853.3c-51.8-41-317-625.4-317-700.9c0-32.4,17.3-75.5,38.8-94.9c47.5-43.1,155.3-47.5,202.7-8.6c41,30.2,319.2,636.2,319.2,692.3c0,53.9-97.1,142.3-155.3,142.3C3309.2-2823.1,3270.3-2838.2,3248.8-2853.3z"/><path d="M6071.9-2868.4c-34.5-28-56.1-64.7-56.1-99.2c0-73.3,252.3-631.9,306.3-679.4c64.7-58.2,157.4-49.6,209.2,17.2c25.9,32.4,45.3,71.2,45.3,88.4c0,58.2-280.4,642.7-325.6,681.5C6190.5-2812.3,6143.1-2812.3,6071.9-2868.4z"/><path d="M4624.7-3179l-53.9-51.8v-627.6v-627.6l53.9-51.8c28-30.2,66.9-53.9,86.3-53.9c43.1,0,122.9,41,144.5,73.3c8.6,12.9,17.3,312.7,17.3,666.4c0,612.5-2.2,642.7-43.1,683.7C4771.4-3109.9,4687.3-3114.3,4624.7-3179z"/></g></g>
</svg>